<svg xmlns="http://www.w3.org/2000/svg" xmlns:xlink="http://www.w3.org/1999/xlink" xmlns:lucid="lucid" width="1498" height="861"><g transform="translate(-221 -1359.5)" lucid:page-tab-id="0_0"><path d="M0 0h1870.87v3840.5H0z" fill="#fff"/><path d="M521.5 1946c0-3.3 2.7-6 6-6h888c3.3 0 6 2.7 6 6v248c0 3.3-2.7 6-6 6h-888c-3.3 0-6-2.7-6-6zM241.5 1386c0-3.3 2.7-6 6-6h1445c3.3 0 6 2.7 6 6v348c0 3.3-2.7 6-6 6h-1445c-3.3 0-6-2.7-6-6z" stroke="#5e5e5e" fill="#fff"/><path d="M540.75 1506c0-3.3 2.7-6 6-6h48c3.3 0 6 2.7 6 6v48c0 3.3-2.7 6-6 6h-48c-3.3 0-6-2.7-6-6z" stroke="#5e5e5e" stroke-width="3" fill="#fff"/><use xlink:href="#a" transform="matrix(1,0,0,1,552.75,1512) translate(12.444444444444445 22.27777777777778)"/><path d="M540.75 1586c0-3.3 2.7-6 6-6h48c3.3 0 6 2.7 6 6v48c0 3.3-2.7 6-6 6h-48c-3.3 0-6-2.7-6-6z" stroke="#5e5e5e" stroke-width="3" fill="#fff"/><use xlink:href="#b" transform="matrix(1,0,0,1,552.75,1592) translate(12.444444444444445 22.27777777777778)"/><path d="M540.75 1666c0-3.3 2.7-6 6-6h48c3.3 0 6 2.7 6 6v48c0 3.3-2.7 6-6 6h-48c-3.3 0-6-2.7-6-6z" stroke="#5e5e5e" stroke-width="3" fill="#fff"/><use xlink:href="#c" transform="matrix(1,0,0,1,552.75,1672) translate(6.703703703703704 22.27777777777778)"/><path d="M740.75 1506c0-3.3 2.7-6 6-6h48c3.3 0 6 2.7 6 6v48c0 3.3-2.7 6-6 6h-48c-3.3 0-6-2.7-6-6z" stroke="#5e5e5e" stroke-width="3" fill="#fff"/><use xlink:href="#d" transform="matrix(1,0,0,1,752.75,1512) translate(6.703703703703704 22.27777777777778)"/><path d="M640.75 1586c0-3.3 2.7-6 6-6h48c3.3 0 6 2.7 6 6v48c0 3.3-2.7 6-6 6h-48c-3.3 0-6-2.7-6-6z" stroke="#5e5e5e" stroke-width="3" fill="#fff"/><use xlink:href="#e" transform="matrix(1,0,0,1,652.75,1592) translate(-1.9382716049382722 22.444444444444443)"/><path d="M740.75 1586c0-3.3 2.7-6 6-6h48c3.3 0 6 2.7 6 6v48c0 3.3-2.7 6-6 6h-48c-3.3 0-6-2.7-6-6z" stroke="#5e5e5e" stroke-width="3" fill="#fff"/><use xlink:href="#f" transform="matrix(1,0,0,1,752.75,1592) translate(6.703703703703704 22.27777777777778)"/><path d="M740.75 1666c0-3.3 2.7-6 6-6h48c3.3 0 6 2.7 6 6v48c0 3.3-2.7 6-6 6h-48c-3.3 0-6-2.7-6-6z" stroke="#5e5e5e" stroke-width="3" fill="#fff"/><use xlink:href="#c" transform="matrix(1,0,0,1,752.75,1672) translate(6.703703703703704 22.27777777777778)"/><path d="M603.25 1530h2.88m3.83 0h5.75m3.84 0h1.2v4.54m0 3.84v5.74m0 3.84v5.75m0 3.84v5.75m0 3.83v5.74m0 3.84v5.76m0 3.83v5.74m0 3.84v5.74m0 3.84v4.54h1.22m3.83 0h5.74m3.84 0h2.87" stroke="#5e5e5e" stroke-width="2" fill="none"/><path d="M603.28 1531h-1.03v-2h1.03zM639.25 1611h-1.03v-2h1.03z" fill="#5e5e5e"/><path d="M638.25 1610h-2.63m-3.5 0h-5.25m-3.5 0h-5.25m-3.5 0h-5.25m-3.5 0h-2.62" stroke="#5e5e5e" stroke-width="2" fill="none"/><path d="M639.25 1611h-1.03v-2h1.03zM603.28 1611h-1.03v-2h1.03z" fill="#5e5e5e"/><path d="M603.25 1690h2.88m3.83 0h5.75m3.84 0h1.2v-4.54m0-3.84v-5.74m0-3.84v-5.75m0-3.84v-5.75m0-3.83v-5.74m0-3.84v-5.76m0-3.83v-5.74m0-3.84v-5.74m0-3.84V1610h1.22m3.83 0h5.74m3.84 0h2.87" stroke="#5e5e5e" stroke-width="2" fill="none"/><path d="M603.28 1691h-1.03v-2h1.03zM639.25 1611h-1.03v-2h1.03z" fill="#5e5e5e"/><path d="M738.25 1530h-2.88m-3.83 0h-5.75m-3.84 0h-1.2v4.54m0 3.84v5.74m0 3.84v5.75m0 3.84v5.75m0 3.83v5.74m0 3.84v5.76m0 3.83v5.74m0 3.84v5.74m0 3.84v4.54h-1.22m-3.83 0h-5.74m-3.84 0h-2.87" stroke="#5e5e5e" stroke-width="2" fill="none"/><path d="M739.25 1531h-1.03v-2h1.03zM703.28 1611h-1.03v-2h1.03z" fill="#5e5e5e"/><path d="M738.25 1610h-2.63m-3.5 0h-5.25m-3.5 0h-5.25m-3.5 0h-5.25m-3.5 0h-2.62" stroke="#5e5e5e" stroke-width="2" fill="none"/><path d="M739.25 1611h-1.03v-2h1.03zM703.28 1611h-1.03v-2h1.03z" fill="#5e5e5e"/><path d="M738.25 1690h-2.88m-3.83 0h-5.75m-3.84 0h-1.2v-4.54m0-3.84v-5.74m0-3.84v-5.75m0-3.84v-5.75m0-3.83v-5.74m0-3.84v-5.76m0-3.83v-5.74m0-3.84v-5.74m0-3.84V1610h-1.22m-3.83 0h-5.74m-3.84 0h-2.87" stroke="#5e5e5e" stroke-width="2" fill="none"/><path d="M739.25 1691h-1.03v-2h1.03zM703.28 1611h-1.03v-2h1.03z" fill="#5e5e5e"/><path d="M940.75 1506c0-3.3 2.7-6 6-6h48c3.3 0 6 2.7 6 6v48c0 3.3-2.7 6-6 6h-48c-3.3 0-6-2.7-6-6z" stroke="#5e5e5e" stroke-width="3" fill="#fff"/><use xlink:href="#d" transform="matrix(1,0,0,1,952.75,1512) translate(6.703703703703704 22.27777777777778)"/><path d="M840.75 1586c0-3.3 2.7-6 6-6h48c3.3 0 6 2.7 6 6v48c0 3.3-2.7 6-6 6h-48c-3.3 0-6-2.7-6-6z" stroke="#5e5e5e" stroke-width="3" fill="#fff"/><use xlink:href="#g" transform="matrix(1,0,0,1,852.75,1592) translate(-1.9382716049382722 22.444444444444443)"/><path d="M940.75 1586c0-3.3 2.7-6 6-6h48c3.3 0 6 2.7 6 6v48c0 3.3-2.7 6-6 6h-48c-3.3 0-6-2.7-6-6z" stroke="#5e5e5e" stroke-width="3" fill="#fff"/><use xlink:href="#f" transform="matrix(1,0,0,1,952.75,1592) translate(6.703703703703704 22.27777777777778)"/><path d="M940.75 1666c0-3.3 2.7-6 6-6h48c3.3 0 6 2.7 6 6v48c0 3.3-2.7 6-6 6h-48c-3.3 0-6-2.7-6-6z" stroke="#5e5e5e" stroke-width="3" fill="#fff"/><use xlink:href="#c" transform="matrix(1,0,0,1,952.75,1672) translate(6.703703703703704 22.27777777777778)"/><path d="M803.25 1530h2.88m3.83 0h5.75m3.84 0h1.2v4.54m0 3.84v5.74m0 3.84v5.75m0 3.84v5.75m0 3.83v5.74m0 3.84v5.76m0 3.83v5.74m0 3.84v5.74m0 3.84v4.54h1.22m3.83 0h5.74m3.84 0h2.87" stroke="#5e5e5e" stroke-width="2" fill="none"/><path d="M803.28 1531h-1.03v-2h1.03zM839.25 1611h-1.03v-2h1.03z" fill="#5e5e5e"/><path d="M838.25 1610h-2.63m-3.5 0h-5.25m-3.5 0h-5.25m-3.5 0h-5.25m-3.5 0h-2.62" stroke="#5e5e5e" stroke-width="2" fill="none"/><path d="M839.25 1611h-1.03v-2h1.03zM803.28 1611h-1.03v-2h1.03z" fill="#5e5e5e"/><path d="M803.25 1690h2.88m3.83 0h5.75m3.84 0h1.2v-4.54m0-3.84v-5.74m0-3.84v-5.75m0-3.84v-5.75m0-3.83v-5.74m0-3.84v-5.76m0-3.83v-5.74m0-3.84v-5.74m0-3.84V1610h1.22m3.83 0h5.74m3.84 0h2.87" stroke="#5e5e5e" stroke-width="2" fill="none"/><path d="M803.28 1691h-1.03v-2h1.03zM839.25 1611h-1.03v-2h1.03z" fill="#5e5e5e"/><path d="M938.25 1530h-2.88m-3.83 0h-5.75m-3.84 0h-1.2v4.54m0 3.84v5.74m0 3.84v5.75m0 3.84v5.75m0 3.83v5.74m0 3.84v5.76m0 3.83v5.74m0 3.84v5.74m0 3.84v4.54h-1.22m-3.83 0h-5.74m-3.84 0h-2.87" stroke="#5e5e5e" stroke-width="2" fill="none"/><path d="M939.25 1531h-1.03v-2h1.03zM903.28 1611h-1.03v-2h1.03z" fill="#5e5e5e"/><path d="M938.25 1610h-2.63m-3.5 0h-5.25m-3.5 0h-5.25m-3.5 0h-5.25m-3.5 0h-2.62" stroke="#5e5e5e" stroke-width="2" fill="none"/><path d="M939.25 1611h-1.03v-2h1.03zM903.28 1611h-1.03v-2h1.03z" fill="#5e5e5e"/><path d="M938.25 1690h-2.88m-3.83 0h-5.75m-3.84 0h-1.2v-4.54m0-3.84v-5.74m0-3.84v-5.75m0-3.84v-5.75m0-3.83v-5.74m0-3.84v-5.76m0-3.83v-5.74m0-3.84v-5.74m0-3.84V1610h-1.22m-3.83 0h-5.74m-3.84 0h-2.87" stroke="#5e5e5e" stroke-width="2" fill="none"/><path d="M939.25 1691h-1.03v-2h1.03zM903.28 1611h-1.03v-2h1.03z" fill="#5e5e5e"/><path d="M1140.75 1506c0-3.3 2.7-6 6-6h48c3.3 0 6 2.7 6 6v48c0 3.3-2.7 6-6 6h-48c-3.3 0-6-2.7-6-6z" stroke="#5e5e5e" stroke-width="3" fill="#fff"/><use xlink:href="#d" transform="matrix(1,0,0,1,1152.75,1512) translate(6.703703703703704 22.27777777777778)"/><path d="M1040.75 1586c0-3.3 2.7-6 6-6h48c3.3 0 6 2.7 6 6v48c0 3.3-2.7 6-6 6h-48c-3.3 0-6-2.7-6-6z" stroke="#5e5e5e" stroke-width="3" fill="#fff"/><use xlink:href="#h" transform="matrix(1,0,0,1,1052.75,1592) translate(-1.9382716049382722 22.444444444444443)"/><path d="M1140.75 1586c0-3.3 2.7-6 6-6h48c3.3 0 6 2.7 6 6v48c0 3.3-2.7 6-6 6h-48c-3.3 0-6-2.7-6-6z" stroke="#5e5e5e" stroke-width="3" fill="#fff"/><use xlink:href="#f" transform="matrix(1,0,0,1,1152.75,1592) translate(6.703703703703704 22.27777777777778)"/><path d="M1140.75 1666c0-3.3 2.7-6 6-6h48c3.3 0 6 2.7 6 6v48c0 3.3-2.7 6-6 6h-48c-3.3 0-6-2.7-6-6z" stroke="#5e5e5e" stroke-width="3" fill="#fff"/><use xlink:href="#c" transform="matrix(1,0,0,1,1152.75,1672) translate(6.703703703703704 22.27777777777778)"/><path d="M1003.25 1530h2.88m3.83 0h5.75m3.84 0h1.2v4.54m0 3.84v5.74m0 3.84v5.75m0 3.84v5.75m0 3.83v5.74m0 3.84v5.76m0 3.83v5.74m0 3.84v5.74m0 3.84v4.54h1.22m3.83 0h5.74m3.84 0h2.87" stroke="#5e5e5e" stroke-width="2" fill="none"/><path d="M1003.28 1531h-1.03v-2h1.03zM1039.25 1611h-1.03v-2h1.03z" fill="#5e5e5e"/><path d="M1038.25 1610h-2.63m-3.5 0h-5.24m-3.5 0h-5.25m-3.5 0h-5.25m-3.5 0h-2.63" stroke="#5e5e5e" stroke-width="2" fill="none"/><path d="M1039.25 1611h-1.03v-2h1.03zM1003.28 1611h-1.03v-2h1.03z" fill="#5e5e5e"/><path d="M1003.25 1690h2.88m3.83 0h5.75m3.84 0h1.2v-4.54m0-3.84v-5.74m0-3.84v-5.75m0-3.84v-5.75m0-3.83v-5.74m0-3.84v-5.76m0-3.83v-5.74m0-3.84v-5.74m0-3.84V1610h1.22m3.83 0h5.74m3.84 0h2.87" stroke="#5e5e5e" stroke-width="2" fill="none"/><path d="M1003.28 1691h-1.03v-2h1.03zM1039.25 1611h-1.03v-2h1.03z" fill="#5e5e5e"/><path d="M1138.25 1530h-2.88m-3.83 0h-5.75m-3.84 0h-1.2v4.54m0 3.84v5.74m0 3.84v5.75m0 3.84v5.75m0 3.83v5.74m0 3.84v5.76m0 3.83v5.74m0 3.84v5.74m0 3.84v4.54h-1.22m-3.83 0h-5.74m-3.84 0h-2.87" stroke="#5e5e5e" stroke-width="2" fill="none"/><path d="M1139.25 1531h-1.03v-2h1.03zM1103.28 1611h-1.03v-2h1.03z" fill="#5e5e5e"/><path d="M1138.25 1610h-2.63m-3.5 0h-5.24m-3.5 0h-5.26m-3.5 0h-5.24m-3.5 0h-2.63" stroke="#5e5e5e" stroke-width="2" fill="none"/><path d="M1139.25 1611h-1.03v-2h1.03zM1103.28 1611h-1.03v-2h1.03z" fill="#5e5e5e"/><path d="M1138.25 1690h-2.88m-3.83 0h-5.75m-3.84 0h-1.2v-4.54m0-3.84v-5.74m0-3.84v-5.75m0-3.84v-5.75m0-3.83v-5.74m0-3.84v-5.76m0-3.83v-5.74m0-3.84v-5.74m0-3.84V1610h-1.22m-3.83 0h-5.74m-3.84 0h-2.87" stroke="#5e5e5e" stroke-width="2" fill="none"/><path d="M1139.25 1691h-1.03v-2h1.03zM1103.28 1611h-1.03v-2h1.03z" fill="#5e5e5e"/><path d="M1340.75 1506c0-3.3 2.7-6 6-6h48c3.3 0 6 2.7 6 6v48c0 3.3-2.7 6-6 6h-48c-3.3 0-6-2.7-6-6z" stroke="#5e5e5e" stroke-width="3" fill="#fff"/><use xlink:href="#d" transform="matrix(1,0,0,1,1352.75,1512) translate(6.703703703703704 22.27777777777778)"/><path d="M1240.75 1586c0-3.3 2.7-6 6-6h48c3.3 0 6 2.7 6 6v48c0 3.3-2.7 6-6 6h-48c-3.3 0-6-2.7-6-6z" stroke="#5e5e5e" stroke-width="3" fill="#fff"/><use xlink:href="#i" transform="matrix(1,0,0,1,1252.75,1592) translate(-1.9382716049382722 22.444444444444443)"/><path d="M1340.75 1586c0-3.3 2.7-6 6-6h48c3.3 0 6 2.7 6 6v48c0 3.3-2.7 6-6 6h-48c-3.3 0-6-2.7-6-6z" stroke="#5e5e5e" stroke-width="3" fill="#fff"/><use xlink:href="#j" transform="matrix(1,0,0,1,1352.75,1592) translate(12.444444444444445 22.27777777777778)"/><path d="M1340.75 1666c0-3.3 2.7-6 6-6h48c3.3 0 6 2.7 6 6v48c0 3.3-2.7 6-6 6h-48c-3.3 0-6-2.7-6-6z" stroke="#5e5e5e" stroke-width="3" fill="#fff"/><use xlink:href="#c" transform="matrix(1,0,0,1,1352.75,1672) translate(6.703703703703704 22.27777777777778)"/><path d="M1203.25 1530h2.88m3.83 0h5.75m3.84 0h1.2v4.54m0 3.84v5.74m0 3.84v5.75m0 3.84v5.75m0 3.83v5.74m0 3.84v5.76m0 3.83v5.74m0 3.84v5.74m0 3.84v4.54h1.22m3.83 0h5.74m3.84 0h2.87" stroke="#5e5e5e" stroke-width="2" fill="none"/><path d="M1203.28 1531h-1.03v-2h1.03zM1239.25 1611h-1.03v-2h1.03z" fill="#5e5e5e"/><path d="M1238.25 1610h-2.63m-3.5 0h-5.24m-3.5 0h-5.26m-3.5 0h-5.24m-3.5 0h-2.63" stroke="#5e5e5e" stroke-width="2" fill="none"/><path d="M1239.25 1611h-1.03v-2h1.03zM1203.28 1611h-1.03v-2h1.03z" fill="#5e5e5e"/><path d="M1203.25 1690h2.88m3.83 0h5.75m3.84 0h1.2v-4.54m0-3.84v-5.74m0-3.84v-5.75m0-3.84v-5.75m0-3.83v-5.74m0-3.84v-5.76m0-3.83v-5.74m0-3.84v-5.74m0-3.84V1610h1.22m3.83 0h5.74m3.84 0h2.87" stroke="#5e5e5e" stroke-width="2" fill="none"/><path d="M1203.28 1691h-1.03v-2h1.03zM1239.25 1611h-1.03v-2h1.03z" fill="#5e5e5e"/><path d="M1338.25 1530h-2.88m-3.83 0h-5.75m-3.84 0h-1.2v4.54m0 3.84v5.74m0 3.84v5.75m0 3.84v5.75m0 3.83v5.74m0 3.84v5.76m0 3.83v5.74m0 3.84v5.74m0 3.84v4.54h-1.22m-3.83 0h-5.74m-3.84 0h-2.87" stroke="#5e5e5e" stroke-width="2" fill="none"/><path d="M1339.25 1531h-1.03v-2h1.03zM1303.28 1611h-1.03v-2h1.03z" fill="#5e5e5e"/><path d="M1338.25 1610h-2.63m-3.5 0h-5.24m-3.5 0h-5.26m-3.5 0h-5.24m-3.5 0h-2.63" stroke="#5e5e5e" stroke-width="2" fill="none"/><path d="M1339.25 1611h-1.03v-2h1.03zM1303.28 1611h-1.03v-2h1.03z" fill="#5e5e5e"/><path d="M1338.25 1690h-2.88m-3.83 0h-5.75m-3.84 0h-1.2v-4.54m0-3.84v-5.74m0-3.84v-5.75m0-3.84v-5.75m0-3.83v-5.74m0-3.84v-5.76m0-3.83v-5.74m0-3.84v-5.74m0-3.84V1610h-1.22m-3.83 0h-5.74m-3.84 0h-2.87" stroke="#5e5e5e" stroke-width="2" fill="none"/><path d="M1339.25 1691h-1.03v-2h1.03zM1303.28 1611h-1.03v-2h1.03z" fill="#5e5e5e"/><path d="M1048.75 1400c28.72 0 52 13.43 52 30s-23.28 30-52 30h-156c-28.72 0-52-13.43-52-30s23.28-30 52-30z" stroke="#5e5e5e" stroke-width="3" fill="#fff"/><use xlink:href="#k" transform="matrix(1,0,0,1,845.75,1405) translate(16.517345679012347 30.27777777777778)"/><use xlink:href="#l" transform="matrix(1,0,0,1,845.75,1405) translate(75.59141975308643 30.27777777777778)"/><use xlink:href="#m" transform="matrix(1,0,0,1,845.75,1405) translate(134.6654938271605 30.27777777777778)"/><use xlink:href="#n" transform="matrix(1,0,0,1,845.75,1405) translate(194.6654938271605 30.27777777777778)"/><path d="M670.75 1560v-80h300v-17.5" stroke="#5e5e5e" stroke-width="2" fill="none"/><path d="M670.75 1575.26L666.1 1561h9.3z" stroke="#5e5e5e" stroke-width="2" fill="#5e5e5e"/><path d="M971.75 1462.53h-2v-1.03h2z" fill="#5e5e5e"/><path d="M870.75 1560v-80h100v-17.5" stroke="#5e5e5e" stroke-width="2" fill="none"/><path d="M870.75 1575.26L866.1 1561h9.3z" stroke="#5e5e5e" stroke-width="2" fill="#5e5e5e"/><path d="M971.75 1462.53h-2v-1.03h2z" fill="#5e5e5e"/><path d="M1070.75 1560v-80h-100v-17.5" stroke="#5e5e5e" stroke-width="2" fill="none"/><path d="M1070.75 1575.26l-4.64-14.26h9.3z" stroke="#5e5e5e" stroke-width="2" fill="#5e5e5e"/><path d="M971.75 1462.53h-2v-1.03h2z" fill="#5e5e5e"/><path d="M1270.75 1560v-80h-300v-17.5" stroke="#5e5e5e" stroke-width="2" fill="none"/><path d="M1270.75 1575.26l-4.64-14.26h9.3z" stroke="#5e5e5e" stroke-width="2" fill="#5e5e5e"/><path d="M971.75 1462.53h-2v-1.03h2z" fill="#5e5e5e"/><path d="M540.75 1966c0-3.3 2.7-6 6-6h48c3.3 0 6 2.7 6 6v48c0 3.3-2.7 6-6 6h-48c-3.3 0-6-2.7-6-6z" stroke="#5e5e5e" stroke-width="3" fill="#fff"/><use xlink:href="#a" transform="matrix(1,0,0,1,552.75,1972) translate(12.444444444444445 22.27777777777778)"/><path d="M540.75 2046c0-3.3 2.7-6 6-6h48c3.3 0 6 2.7 6 6v48c0 3.3-2.7 6-6 6h-48c-3.3 0-6-2.7-6-6z" stroke="#5e5e5e" stroke-width="3" fill="#fff"/><use xlink:href="#b" transform="matrix(1,0,0,1,552.75,2052) translate(12.444444444444445 22.27777777777778)"/><path d="M540.75 2126c0-3.3 2.7-6 6-6h48c3.3 0 6 2.7 6 6v48c0 3.3-2.7 6-6 6h-48c-3.3 0-6-2.7-6-6z" stroke="#5e5e5e" stroke-width="3" fill="#fff"/><use xlink:href="#c" transform="matrix(1,0,0,1,552.75,2132) translate(6.703703703703704 22.27777777777778)"/><path d="M740.75 1966c0-3.3 2.7-6 6-6h48c3.3 0 6 2.7 6 6v48c0 3.3-2.7 6-6 6h-48c-3.3 0-6-2.7-6-6z" stroke="#5e5e5e" stroke-width="3" fill="#fff"/><use xlink:href="#a" transform="matrix(1,0,0,1,752.75,1972) translate(12.444444444444445 22.27777777777778)"/><path d="M640.75 2046c0-3.3 2.7-6 6-6h48c3.3 0 6 2.7 6 6v48c0 3.3-2.7 6-6 6h-48c-3.3 0-6-2.7-6-6z" stroke="#5e5e5e" stroke-width="3" fill="#fff"/><use xlink:href="#o" transform="matrix(1,0,0,1,652.75,2052) translate(-5.981481481481481 22.444444444444443)"/><path d="M740.75 2046c0-3.3 2.7-6 6-6h48c3.3 0 6 2.7 6 6v48c0 3.3-2.7 6-6 6h-48c-3.3 0-6-2.7-6-6z" stroke="#5e5e5e" stroke-width="3" fill="#fff"/><use xlink:href="#p" transform="matrix(1,0,0,1,752.75,2052) translate(12.444444444444445 22.27777777777778)"/><path d="M740.75 2126c0-3.3 2.7-6 6-6h48c3.3 0 6 2.7 6 6v48c0 3.3-2.7 6-6 6h-48c-3.3 0-6-2.7-6-6z" stroke="#5e5e5e" stroke-width="3" fill="#fff"/><use xlink:href="#c" transform="matrix(1,0,0,1,752.75,2132) translate(6.703703703703704 22.27777777777778)"/><path d="M603.25 1990h2.88m3.83 0h5.75m3.84 0h1.2v4.54m0 3.84v5.74m0 3.84v5.75m0 3.84v5.75m0 3.83v5.74m0 3.84v5.76m0 3.83v5.74m0 3.84v5.74m0 3.84v4.54h1.22m3.83 0h5.74m3.84 0h2.87" stroke="#5e5e5e" stroke-width="2" fill="none"/><path d="M603.28 1991h-1.03v-2h1.03zM639.25 2071h-1.03v-2h1.03z" fill="#5e5e5e"/><path d="M638.25 2070h-2.63m-3.5 0h-5.25m-3.5 0h-5.25m-3.5 0h-5.25m-3.5 0h-2.62" stroke="#5e5e5e" stroke-width="2" fill="none"/><path d="M639.25 2071h-1.03v-2h1.03zM603.28 2071h-1.03v-2h1.03z" fill="#5e5e5e"/><path d="M603.25 2150h2.88m3.83 0h5.75m3.84 0h1.2v-4.54m0-3.84v-5.74m0-3.84v-5.75m0-3.84v-5.75m0-3.82v-5.76m0-3.83v-5.76m0-3.83v-5.74m0-3.84v-5.74m0-3.84V2070h1.22m3.83 0h5.74m3.84 0h2.87" stroke="#5e5e5e" stroke-width="2" fill="none"/><path d="M603.28 2151h-1.03v-2h1.03zM639.25 2071h-1.03v-2h1.03z" fill="#5e5e5e"/><path d="M738.25 1990h-2.88m-3.83 0h-5.75m-3.84 0h-1.2v4.54m0 3.84v5.74m0 3.84v5.75m0 3.84v5.75m0 3.83v5.74m0 3.84v5.76m0 3.83v5.74m0 3.84v5.74m0 3.84v4.54h-1.22m-3.83 0h-5.74m-3.84 0h-2.87" stroke="#5e5e5e" stroke-width="2" fill="none"/><path d="M739.25 1991h-1.03v-2h1.03zM703.28 2071h-1.03v-2h1.03z" fill="#5e5e5e"/><path d="M738.25 2070h-2.63m-3.5 0h-5.25m-3.5 0h-5.25m-3.5 0h-5.25m-3.5 0h-2.62" stroke="#5e5e5e" stroke-width="2" fill="none"/><path d="M739.25 2071h-1.03v-2h1.03zM703.28 2071h-1.03v-2h1.03z" fill="#5e5e5e"/><path d="M738.25 2150h-2.88m-3.83 0h-5.75m-3.84 0h-1.2v-4.54m0-3.84v-5.74m0-3.84v-5.75m0-3.84v-5.75m0-3.82v-5.76m0-3.83v-5.76m0-3.83v-5.74m0-3.84v-5.74m0-3.84V2070h-1.22m-3.83 0h-5.74m-3.84 0h-2.87" stroke="#5e5e5e" stroke-width="2" fill="none"/><path d="M739.25 2151h-1.03v-2h1.03zM703.28 2071h-1.03v-2h1.03z" fill="#5e5e5e"/><path d="M940.75 1966c0-3.3 2.7-6 6-6h48c3.3 0 6 2.7 6 6v48c0 3.3-2.7 6-6 6h-48c-3.3 0-6-2.7-6-6z" stroke="#5e5e5e" stroke-width="3" fill="#fff"/><use xlink:href="#a" transform="matrix(1,0,0,1,952.75,1972) translate(12.444444444444445 22.27777777777778)"/><path d="M840.75 2046c0-3.3 2.7-6 6-6h48c3.3 0 6 2.7 6 6v48c0 3.3-2.7 6-6 6h-48c-3.3 0-6-2.7-6-6z" stroke="#5e5e5e" stroke-width="3" fill="#fff"/><use xlink:href="#q" transform="matrix(1,0,0,1,852.75,2052) translate(-7.864197530864196 22.444444444444443)"/><path d="M940.75 2046c0-3.3 2.7-6 6-6h48c3.3 0 6 2.7 6 6v48c0 3.3-2.7 6-6 6h-48c-3.3 0-6-2.7-6-6z" stroke="#5e5e5e" stroke-width="3" fill="#fff"/><use xlink:href="#p" transform="matrix(1,0,0,1,952.75,2052) translate(12.444444444444445 22.27777777777778)"/><path d="M940.75 2126c0-3.3 2.7-6 6-6h48c3.3 0 6 2.7 6 6v48c0 3.3-2.7 6-6 6h-48c-3.3 0-6-2.7-6-6z" stroke="#5e5e5e" stroke-width="3" fill="#fff"/><use xlink:href="#a" transform="matrix(1,0,0,1,952.75,2132) translate(12.444444444444445 22.27777777777778)"/><path d="M803.25 1990h2.88m3.83 0h5.75m3.84 0h1.2v4.54m0 3.84v5.74m0 3.84v5.75m0 3.84v5.75m0 3.83v5.74m0 3.84v5.76m0 3.83v5.74m0 3.84v5.74m0 3.84v4.54h1.22m3.83 0h5.74m3.84 0h2.87" stroke="#5e5e5e" stroke-width="2" fill="none"/><path d="M803.28 1991h-1.03v-2h1.03zM839.25 2071h-1.03v-2h1.03z" fill="#5e5e5e"/><path d="M838.25 2070h-2.63m-3.5 0h-5.25m-3.5 0h-5.25m-3.5 0h-5.25m-3.5 0h-2.62" stroke="#5e5e5e" stroke-width="2" fill="none"/><path d="M839.25 2071h-1.03v-2h1.03zM803.28 2071h-1.03v-2h1.03z" fill="#5e5e5e"/><path d="M803.25 2150h2.88m3.83 0h5.75m3.84 0h1.2v-4.54m0-3.84v-5.74m0-3.84v-5.75m0-3.84v-5.75m0-3.82v-5.76m0-3.83v-5.76m0-3.83v-5.74m0-3.84v-5.74m0-3.84V2070h1.22m3.83 0h5.74m3.84 0h2.87" stroke="#5e5e5e" stroke-width="2" fill="none"/><path d="M803.28 2151h-1.03v-2h1.03zM839.25 2071h-1.03v-2h1.03z" fill="#5e5e5e"/><path d="M938.25 1990h-2.88m-3.83 0h-5.75m-3.84 0h-1.2v4.54m0 3.84v5.74m0 3.84v5.75m0 3.84v5.75m0 3.83v5.74m0 3.84v5.76m0 3.83v5.74m0 3.84v5.74m0 3.84v4.54h-1.22m-3.83 0h-5.74m-3.84 0h-2.87" stroke="#5e5e5e" stroke-width="2" fill="none"/><path d="M939.25 1991h-1.03v-2h1.03zM903.28 2071h-1.03v-2h1.03z" fill="#5e5e5e"/><path d="M938.25 2070h-2.63m-3.5 0h-5.25m-3.5 0h-5.25m-3.5 0h-5.25m-3.5 0h-2.62" stroke="#5e5e5e" stroke-width="2" fill="none"/><path d="M939.25 2071h-1.03v-2h1.03zM903.28 2071h-1.03v-2h1.03z" fill="#5e5e5e"/><path d="M938.25 2150h-2.88m-3.83 0h-5.75m-3.84 0h-1.2v-4.54m0-3.84v-5.74m0-3.84v-5.75m0-3.84v-5.75m0-3.82v-5.76m0-3.83v-5.76m0-3.83v-5.74m0-3.84v-5.74m0-3.84V2070h-1.22m-3.83 0h-5.74m-3.84 0h-2.87" stroke="#5e5e5e" stroke-width="2" fill="none"/><path d="M939.25 2151h-1.03v-2h1.03zM903.28 2071h-1.03v-2h1.03z" fill="#5e5e5e"/><path d="M1140.75 1966c0-3.3 2.7-6 6-6h48c3.3 0 6 2.7 6 6v48c0 3.3-2.7 6-6 6h-48c-3.3 0-6-2.7-6-6z" stroke="#5e5e5e" stroke-width="3" fill="#fff"/><use xlink:href="#a" transform="matrix(1,0,0,1,1152.75,1972) translate(12.444444444444445 22.27777777777778)"/><path d="M1040.75 2046c0-3.3 2.7-6 6-6h48c3.3 0 6 2.7 6 6v48c0 3.3-2.7 6-6 6h-48c-3.3 0-6-2.7-6-6z" stroke="#5e5e5e" stroke-width="3" fill="#fff"/><use xlink:href="#o" transform="matrix(1,0,0,1,1052.75,2052) translate(-5.981481481481481 22.444444444444443)"/><path d="M1140.75 2046c0-3.3 2.7-6 6-6h48c3.3 0 6 2.7 6 6v48c0 3.3-2.7 6-6 6h-48c-3.3 0-6-2.7-6-6z" stroke="#5e5e5e" stroke-width="3" fill="#fff"/><use xlink:href="#p" transform="matrix(1,0,0,1,1152.75,2052) translate(12.444444444444445 22.27777777777778)"/><path d="M1140.75 2126c0-3.3 2.7-6 6-6h48c3.3 0 6 2.7 6 6v48c0 3.3-2.7 6-6 6h-48c-3.3 0-6-2.7-6-6z" stroke="#5e5e5e" stroke-width="3" fill="#fff"/><use xlink:href="#r" transform="matrix(1,0,0,1,1152.75,2132) translate(12.444444444444445 22.27777777777778)"/><path d="M1003.25 1990h2.88m3.83 0h5.75m3.84 0h1.2v4.54m0 3.84v5.74m0 3.84v5.75m0 3.84v5.75m0 3.83v5.74m0 3.84v5.76m0 3.83v5.74m0 3.84v5.74m0 3.84v4.54h1.22m3.83 0h5.74m3.84 0h2.87" stroke="#5e5e5e" stroke-width="2" fill="none"/><path d="M1003.28 1991h-1.03v-2h1.03zM1039.25 2071h-1.03v-2h1.03z" fill="#5e5e5e"/><path d="M1038.25 2070h-2.63m-3.5 0h-5.24m-3.5 0h-5.25m-3.5 0h-5.25m-3.5 0h-2.63" stroke="#5e5e5e" stroke-width="2" fill="none"/><path d="M1039.25 2071h-1.03v-2h1.03zM1003.28 2071h-1.03v-2h1.03z" fill="#5e5e5e"/><path d="M1003.25 2150h2.88m3.83 0h5.75m3.84 0h1.2v-4.54m0-3.84v-5.74m0-3.84v-5.75m0-3.84v-5.75m0-3.82v-5.76m0-3.83v-5.76m0-3.83v-5.74m0-3.84v-5.74m0-3.84V2070h1.22m3.83 0h5.74m3.84 0h2.87" stroke="#5e5e5e" stroke-width="2" fill="none"/><path d="M1003.28 2151h-1.03v-2h1.03zM1039.25 2071h-1.03v-2h1.03z" fill="#5e5e5e"/><path d="M1138.25 1990h-2.88m-3.83 0h-5.75m-3.84 0h-1.2v4.54m0 3.84v5.74m0 3.84v5.75m0 3.84v5.75m0 3.83v5.74m0 3.84v5.76m0 3.83v5.74m0 3.84v5.74m0 3.84v4.54h-1.22m-3.83 0h-5.74m-3.84 0h-2.87" stroke="#5e5e5e" stroke-width="2" fill="none"/><path d="M1139.25 1991h-1.03v-2h1.03zM1103.28 2071h-1.03v-2h1.03z" fill="#5e5e5e"/><path d="M1138.25 2070h-2.63m-3.5 0h-5.24m-3.5 0h-5.26m-3.5 0h-5.24m-3.5 0h-2.63" stroke="#5e5e5e" stroke-width="2" fill="none"/><path d="M1139.25 2071h-1.03v-2h1.03zM1103.28 2071h-1.03v-2h1.03z" fill="#5e5e5e"/><path d="M1138.25 2150h-2.88m-3.83 0h-5.75m-3.84 0h-1.2v-4.54m0-3.84v-5.74m0-3.84v-5.75m0-3.84v-5.75m0-3.82v-5.76m0-3.83v-5.76m0-3.83v-5.74m0-3.84v-5.74m0-3.84V2070h-1.22m-3.83 0h-5.74m-3.84 0h-2.87" stroke="#5e5e5e" stroke-width="2" fill="none"/><path d="M1139.25 2151h-1.03v-2h1.03zM1103.28 2071h-1.03v-2h1.03z" fill="#5e5e5e"/><path d="M1340.75 1966c0-3.3 2.7-6 6-6h48c3.3 0 6 2.7 6 6v48c0 3.3-2.7 6-6 6h-48c-3.3 0-6-2.7-6-6z" stroke="#5e5e5e" stroke-width="3" fill="#fff"/><use xlink:href="#d" transform="matrix(1,0,0,1,1352.75,1972) translate(6.703703703703704 22.27777777777778)"/><path d="M1240.75 2046c0-3.3 2.7-6 6-6h48c3.3 0 6 2.7 6 6v48c0 3.3-2.7 6-6 6h-48c-3.3 0-6-2.7-6-6z" stroke="#5e5e5e" stroke-width="3" fill="#fff"/><use xlink:href="#s" transform="matrix(1,0,0,1,1252.75,2052) translate(-3.5740740740740726 22.444444444444443)"/><path d="M1340.75 2046c0-3.3 2.7-6 6-6h48c3.3 0 6 2.7 6 6v48c0 3.3-2.7 6-6 6h-48c-3.3 0-6-2.7-6-6z" stroke="#5e5e5e" stroke-width="3" fill="#fff"/><use xlink:href="#j" transform="matrix(1,0,0,1,1352.75,2052) translate(12.444444444444445 22.27777777777778)"/><path d="M1340.75 2126c0-3.3 2.7-6 6-6h48c3.3 0 6 2.7 6 6v48c0 3.3-2.7 6-6 6h-48c-3.3 0-6-2.7-6-6z" stroke="#5e5e5e" stroke-width="3" fill="#fff"/><use xlink:href="#c" transform="matrix(1,0,0,1,1352.75,2132) translate(6.703703703703704 22.27777777777778)"/><path d="M1203.25 1990h2.88m3.83 0h5.75m3.84 0h1.2v4.54m0 3.84v5.74m0 3.84v5.75m0 3.84v5.75m0 3.83v5.74m0 3.84v5.76m0 3.83v5.74m0 3.84v5.74m0 3.84v4.54h1.22m3.83 0h5.74m3.84 0h2.87" stroke="#5e5e5e" stroke-width="2" fill="none"/><path d="M1203.28 1991h-1.03v-2h1.03zM1239.25 2071h-1.03v-2h1.03z" fill="#5e5e5e"/><path d="M1238.25 2070h-2.63m-3.5 0h-5.24m-3.5 0h-5.26m-3.5 0h-5.24m-3.5 0h-2.63" stroke="#5e5e5e" stroke-width="2" fill="none"/><path d="M1239.25 2071h-1.03v-2h1.03zM1203.28 2071h-1.03v-2h1.03z" fill="#5e5e5e"/><path d="M1203.25 2150h2.88m3.83 0h5.75m3.84 0h1.2v-4.54m0-3.84v-5.74m0-3.84v-5.75m0-3.84v-5.75m0-3.82v-5.76m0-3.83v-5.76m0-3.83v-5.74m0-3.84v-5.74m0-3.84V2070h1.22m3.83 0h5.74m3.84 0h2.87" stroke="#5e5e5e" stroke-width="2" fill="none"/><path d="M1203.28 2151h-1.03v-2h1.03zM1239.25 2071h-1.03v-2h1.03z" fill="#5e5e5e"/><path d="M1338.25 1990h-2.88m-3.83 0h-5.75m-3.84 0h-1.2v4.54m0 3.84v5.74m0 3.84v5.75m0 3.84v5.75m0 3.83v5.74m0 3.84v5.76m0 3.83v5.74m0 3.84v5.74m0 3.84v4.54h-1.22m-3.83 0h-5.74m-3.84 0h-2.87" stroke="#5e5e5e" stroke-width="2" fill="none"/><path d="M1339.25 1991h-1.03v-2h1.03zM1303.28 2071h-1.03v-2h1.03z" fill="#5e5e5e"/><path d="M1338.25 2070h-2.63m-3.5 0h-5.24m-3.5 0h-5.26m-3.5 0h-5.24m-3.5 0h-2.63" stroke="#5e5e5e" stroke-width="2" fill="none"/><path d="M1339.25 2071h-1.03v-2h1.03zM1303.28 2071h-1.03v-2h1.03z" fill="#5e5e5e"/><path d="M1338.25 2150h-2.88m-3.83 0h-5.75m-3.84 0h-1.2v-4.54m0-3.84v-5.74m0-3.84v-5.75m0-3.84v-5.75m0-3.82v-5.76m0-3.83v-5.76m0-3.83v-5.74m0-3.84v-5.74m0-3.84V2070h-1.22m-3.83 0h-5.74m-3.84 0h-2.87" stroke="#5e5e5e" stroke-width="2" fill="none"/><path d="M1339.25 2151h-1.03v-2h1.03zM1303.28 2071h-1.03v-2h1.03z" fill="#5e5e5e"/><path d="M262.25 1516c0-3.3 2.7-6 6-6h188c3.3 0 6 2.7 6 6v188c0 3.3-2.7 6-6 6h-188c-3.3 0-6-2.7-6-6z" stroke="#5e5e5e" stroke-width="3" fill="#fff"/><use xlink:href="#t" transform="matrix(1,0,0,1,267.25,1515) translate(39.90740740740742 17.77777777777778)"/><use xlink:href="#u" transform="matrix(1,0,0,1,267.25,1515) translate(74.96913580246914 17.77777777777778)"/><path d="M282.25 1556c0-3.3 2.7-6 6-6h148c3.3 0 6 2.7 6 6v48c0 3.3-2.7 6-6 6h-148c-3.3 0-6-2.7-6-6z" stroke="#5e5e5e" stroke-width="3" fill="#fff"/><use xlink:href="#v" transform="matrix(1,0,0,1,294.25,1562) translate(22.805555555555557 15.999999999999998)"/><use xlink:href="#w" transform="matrix(1,0,0,1,294.25,1562) translate(69.97222222222223 15.999999999999998)"/><use xlink:href="#x" transform="matrix(1,0,0,1,294.25,1562) translate(31.333333333333336 39.99999999999999)"/><use xlink:href="#y" transform="matrix(1,0,0,1,294.25,1562) translate(78.38888888888889 39.99999999999999)"/><use xlink:href="#z" transform="matrix(1,0,0,1,294.25,1562) translate(94.66666666666666 39.99999999999999)"/><path d="M282.25 1636c0-3.3 2.7-6 6-6h148c3.3 0 6 2.7 6 6v48c0 3.3-2.7 6-6 6h-148c-3.3 0-6-2.7-6-6z" stroke="#5e5e5e" stroke-width="3" fill="#fff"/><use xlink:href="#A" transform="matrix(1,0,0,1,294.25,1642) translate(16.1388888888889 15.999999999999998)"/><use xlink:href="#w" transform="matrix(1,0,0,1,294.25,1642) translate(76.63888888888889 15.999999999999998)"/><use xlink:href="#x" transform="matrix(1,0,0,1,294.25,1642) translate(31.333333333333336 39.99999999999999)"/><use xlink:href="#y" transform="matrix(1,0,0,1,294.25,1642) translate(78.38888888888889 39.99999999999999)"/><use xlink:href="#B" transform="matrix(1,0,0,1,294.25,1642) translate(94.66666666666666 39.99999999999999)"/><path d="M444.75 1580h46.75v30h29.25" stroke="#5e5e5e" stroke-width="2" fill="none"/><path d="M444.78 1581h-1.03v-2h1.03z" fill="#5e5e5e"/><path d="M536 1610l-14.25 4.64v-9.28z" stroke="#5e5e5e" stroke-width="2" fill="#5e5e5e"/><path d="M1480 1536c0-3.3 2.7-6 6-6h148c3.3 0 6 2.7 6 6v48c0 3.3-2.7 6-6 6h-148c-3.3 0-6-2.7-6-6z" stroke="#5e5e5e" stroke-width="3" fill="#fff"/><use xlink:href="#v" transform="matrix(1,0,0,1,1492,1542) translate(22.805555555555557 15.999999999999998)"/><use xlink:href="#w" transform="matrix(1,0,0,1,1492,1542) translate(69.97222222222223 15.999999999999998)"/><use xlink:href="#x" transform="matrix(1,0,0,1,1492,1542) translate(31.333333333333336 39.99999999999999)"/><use xlink:href="#y" transform="matrix(1,0,0,1,1492,1542) translate(78.38888888888889 39.99999999999999)"/><use xlink:href="#C" transform="matrix(1,0,0,1,1492,1542) translate(94.66666666666666 39.99999999999999)"/><path d="M1480 1616c0-3.3 2.7-6 6-6h148c3.3 0 6 2.7 6 6v48c0 3.3-2.7 6-6 6h-148c-3.3 0-6-2.7-6-6z" stroke="#5e5e5e" stroke-width="3" fill="#fff"/><use xlink:href="#A" transform="matrix(1,0,0,1,1492,1622) translate(16.1388888888889 15.999999999999998)"/><use xlink:href="#w" transform="matrix(1,0,0,1,1492,1622) translate(76.63888888888889 15.999999999999998)"/><use xlink:href="#x" transform="matrix(1,0,0,1,1492,1622) translate(26.333333333333336 39.99999999999999)"/><use xlink:href="#y" transform="matrix(1,0,0,1,1492,1622) translate(73.38888888888889 39.99999999999999)"/><use xlink:href="#D" transform="matrix(1,0,0,1,1492,1622) translate(89.66666666666666 39.99999999999999)"/><path d="M1480 1516c0-3.3 2.7-6 6-6h188c3.3 0 6 2.7 6 6v188c0 3.3-2.7 6-6 6h-188c-3.3 0-6-2.7-6-6z" stroke="#5e5e5e" stroke-width="3" fill="#fff"/><g><use xlink:href="#t" transform="matrix(1,0,0,1,1485,1515) translate(39.90740740740742 17.77777777777778)"/><use xlink:href="#u" transform="matrix(1,0,0,1,1485,1515) translate(74.96913580246914 17.77777777777778)"/></g><path d="M1500 1556c0-3.3 2.7-6 6-6h148c3.3 0 6 2.7 6 6v48c0 3.3-2.7 6-6 6h-148c-3.3 0-6-2.7-6-6z" stroke="#5e5e5e" stroke-width="3" fill="#fff"/><g><use xlink:href="#v" transform="matrix(1,0,0,1,1512,1562) translate(22.805555555555557 15.999999999999998)"/><use xlink:href="#w" transform="matrix(1,0,0,1,1512,1562) translate(69.97222222222223 15.999999999999998)"/><use xlink:href="#x" transform="matrix(1,0,0,1,1512,1562) translate(31.333333333333336 39.99999999999999)"/><use xlink:href="#y" transform="matrix(1,0,0,1,1512,1562) translate(78.38888888888889 39.99999999999999)"/><use xlink:href="#z" transform="matrix(1,0,0,1,1512,1562) translate(94.66666666666666 39.99999999999999)"/></g><path d="M1500 1636c0-3.3 2.7-6 6-6h148c3.3 0 6 2.7 6 6v48c0 3.3-2.7 6-6 6h-148c-3.3 0-6-2.7-6-6z" stroke="#5e5e5e" stroke-width="3" fill="#fff"/><g><use xlink:href="#A" transform="matrix(1,0,0,1,1512,1642) translate(16.1388888888889 15.999999999999998)"/><use xlink:href="#w" transform="matrix(1,0,0,1,1512,1642) translate(76.63888888888889 15.999999999999998)"/><use xlink:href="#x" transform="matrix(1,0,0,1,1512,1642) translate(31.333333333333336 39.99999999999999)"/><use xlink:href="#y" transform="matrix(1,0,0,1,1512,1642) translate(78.38888888888889 39.99999999999999)"/><use xlink:href="#B" transform="matrix(1,0,0,1,1512,1642) translate(94.66666666666666 39.99999999999999)"/></g><path d="M1497.5 1660h-41.13c-3.3 0-6-2.7-6-6v-38c0-3.3-2.68-6-6-6h-23.62" stroke="#5e5e5e" stroke-width="2" fill="none"/><path d="M1498.5 1661h-1.03v-2h1.03z" fill="#5e5e5e"/><path d="M1405.5 1610l14.25-4.64v9.28z" stroke="#5e5e5e" stroke-width="2" fill="#5e5e5e"/><path d="M890.75 1803.6c0-3.3 2.7-6 6-6h148c3.3 0 6 2.7 6 6v70.4c0 3.3-2.7 6-6 6h-148c-3.3 0-6-2.7-6-6z" stroke="#5e5e5e" stroke-width="3" fill="#fff"/><g><use xlink:href="#E" transform="matrix(1,0,0,1,902.75,1809.5990232553556) translate(25.808641975308646 32.52777777777778)"/><use xlink:href="#F" transform="matrix(1,0,0,1,902.75,1809.5990232553556) translate(55.99382716049383 32.52777777777778)"/></g><path d="M970.75 1741.5v36.1" stroke="#5e5e5e" stroke-width="2" fill="none"/><path d="M971.75 1741.53h-2v-1.03h2z" fill="#5e5e5e"/><path d="M970.75 1792.86l-4.64-14.26h9.3z" stroke="#5e5e5e" stroke-width="2" fill="#5e5e5e"/><path d="M971.5 1882.5v38.5" stroke="#5e5e5e" stroke-width="2" fill="none"/><path d="M972.5 1882.53h-2v-1.03h2z" fill="#5e5e5e"/><path d="M971.5 1936.26l-4.64-14.26h9.28z" stroke="#5e5e5e" stroke-width="2" fill="#5e5e5e"/><defs><path fill="#333" d="M104-123c39 3 61 21 62 59C167 7 83 12 19-4l-2-50h12c2 29 16 43 51 43 38 0 54-19 54-55 2-43-34-49-75-50v-14c37 0 64-7 64-48 0-47-47-56-81-36l-6 29H24v-46c51-13 135-13 131 51-2 34-20 52-51 57" id="G"/><use transform="matrix(0.06172839506172839,0,0,0.06172839506172839,0,0)" xlink:href="#G" id="a"/><path fill="#333" d="M134-68c4-52-44-63-88-51H29v-117h119v27H45v75c60-10 121-2 121 64C166 3 87 15 23-4l-2-50h12c1 28 14 43 47 43 39 0 51-20 54-57" id="H"/><use transform="matrix(0.06172839506172839,0,0,0.06172839506172839,0,0)" xlink:href="#H" id="b"/><path fill="#333" d="M199-173c-1 36-21 56-49 65l64 94 26 5v9h-57l-66-103H75v89l35 5v9H13v-9l28-5v-208l-31-4v-10c80 4 190-20 189 63zM75-119c50 2 89-1 89-51 0-49-39-52-89-50v101" id="I"/><path fill="#333" d="M24-231c66-21 156 2 128 81C132-92 78-66 39-27h121V0H16v-26l59-54c26-25 47-47 47-97 0-48-47-57-81-37l-6 29H24v-46" id="J"/><g id="c"><use transform="matrix(0.06172839506172839,0,0,0.06172839506172839,0,0)" xlink:href="#I"/><use transform="matrix(0.043209876543209874,0,0,0.043209876543209874,14.814814814814813,3.1111111111111107)" xlink:href="#J"/></g><path fill="#333" d="M90-239c59 0 76 52 76 120S152 4 89 4C31 4 14-51 14-119c0-67 17-120 76-120zM89-10c45-6 45-58 45-109 0-50 0-101-45-106-45 4-43 57-43 106 0 50-2 104 43 109" id="K"/><g id="d"><use transform="matrix(0.06172839506172839,0,0,0.06172839506172839,0,0)" xlink:href="#I"/><use transform="matrix(0.043209876543209874,0,0,0.043209876543209874,14.814814814814813,3.1111111111111107)" xlink:href="#K"/></g><path fill="#333" d="M47-200c-23 0-25-39 0-38 13 0 18 7 20 19-1 11-8 19-20 19zM65-12l28 4v8H8v-8l28-4v-141l-24-4v-8h53v153" id="L"/><path fill="#333" d="M125-118c4-37-41-34-68-26v132l23 4v8H8C5-13 21-9 28-12v-141c-7-3-23 1-20-12h47l2 13c31-23 98-29 98 31v109c7 3 23-1 20 12h-72v-8l22-4v-106" id="M"/><path fill="#333" d="M41-130c7 48 86 23 86 84 0 56-69 57-112 41v-40c20 0 9 29 31 31 35 19 77-26 41-50-27-18-72-13-72-59 0-50 58-52 100-41v36c-19 1-8-25-28-25-21-7-50-1-46 23" id="N"/><path fill="#333" d="M54-38c-1 25 24 26 44 20v12C71 10 25 9 25-35v-115H4c-2-14 14-10 21-15l18-38h11v38h38v15H54v112" id="O"/><path fill="#333" d="M110-14l48 5v9H32v-9l48-5v-192l-48 17v-10l69-39h9v224" id="P"/><g id="e"><use transform="matrix(0.06172839506172839,0,0,0.06172839506172839,0,0)" xlink:href="#L"/><use transform="matrix(0.06172839506172839,0,0,0.06172839506172839,6.172839506172839,0)" xlink:href="#M"/><use transform="matrix(0.06172839506172839,0,0,0.06172839506172839,17.28395061728395,0)" xlink:href="#N"/><use transform="matrix(0.06172839506172839,0,0,0.06172839506172839,25.925925925925924,0)" xlink:href="#O"/><use transform="matrix(0.043209876543209874,0,0,0.043209876543209874,32.098765432098766,3.1111111111111107)" xlink:href="#P"/></g><g id="f"><use transform="matrix(0.06172839506172839,0,0,0.06172839506172839,0,0)" xlink:href="#I"/><use transform="matrix(0.043209876543209874,0,0,0.043209876543209874,14.814814814814813,3.1111111111111107)" xlink:href="#P"/></g><g id="g"><use transform="matrix(0.06172839506172839,0,0,0.06172839506172839,0,0)" xlink:href="#L"/><use transform="matrix(0.06172839506172839,0,0,0.06172839506172839,6.172839506172839,0)" xlink:href="#M"/><use transform="matrix(0.06172839506172839,0,0,0.06172839506172839,17.28395061728395,0)" xlink:href="#N"/><use transform="matrix(0.06172839506172839,0,0,0.06172839506172839,25.925925925925924,0)" xlink:href="#O"/><use transform="matrix(0.043209876543209874,0,0,0.043209876543209874,32.098765432098766,3.1111111111111107)" xlink:href="#J"/></g><g id="h"><use transform="matrix(0.06172839506172839,0,0,0.06172839506172839,0,0)" xlink:href="#L"/><use transform="matrix(0.06172839506172839,0,0,0.06172839506172839,6.172839506172839,0)" xlink:href="#M"/><use transform="matrix(0.06172839506172839,0,0,0.06172839506172839,17.28395061728395,0)" xlink:href="#N"/><use transform="matrix(0.06172839506172839,0,0,0.06172839506172839,25.925925925925924,0)" xlink:href="#O"/><use transform="matrix(0.043209876543209874,0,0,0.043209876543209874,32.098765432098766,3.1111111111111107)" xlink:href="#G"/></g><path fill="#333" d="M142-52V0h-30v-52H7v-23l115-162h20v160h32v25h-32zm-30-25l-1-119L27-77h85" id="Q"/><g id="i"><use transform="matrix(0.06172839506172839,0,0,0.06172839506172839,0,0)" xlink:href="#L"/><use transform="matrix(0.06172839506172839,0,0,0.06172839506172839,6.172839506172839,0)" xlink:href="#M"/><use transform="matrix(0.06172839506172839,0,0,0.06172839506172839,17.28395061728395,0)" xlink:href="#N"/><use transform="matrix(0.06172839506172839,0,0,0.06172839506172839,25.925925925925924,0)" xlink:href="#O"/><use transform="matrix(0.043209876543209874,0,0,0.043209876543209874,32.098765432098766,3.1111111111111107)" xlink:href="#Q"/></g><use transform="matrix(0.06172839506172839,0,0,0.06172839506172839,0,0)" xlink:href="#J" id="j"/><path fill="#333" d="M81-9v9H4v-9l26-5 81-224h33l83 224 30 5v9h-99v-9l31-5-23-68H73L49-14zm38-203L78-98h82" id="R"/><path fill="#333" d="M75-17c87 13 134-18 134-103 0-78-51-106-134-100v203zm171-102C246 5 139 7 10 0v-9l31-5v-208l-31-4v-10h107c82 0 129 35 129 117" id="S"/><path fill="#333" d="M42-37c43 0 23 74-4 81-7 4-14 8-24 11V42c17-5 29-14 31-30C42-2 20 1 21-18c0-12 9-19 21-19" id="T"/><g id="k"><use transform="matrix(0.06172839506172839,0,0,0.06172839506172839,0,0)" xlink:href="#R"/><use transform="matrix(0.06172839506172839,0,0,0.06172839506172839,15.987654320987653,0)" xlink:href="#S"/><use transform="matrix(0.06172839506172839,0,0,0.06172839506172839,31.975308641975307,0)" xlink:href="#S"/><use transform="matrix(0.06172839506172839,0,0,0.06172839506172839,47.96296296296296,0)" xlink:href="#T"/></g><path fill="#333" d="M203-222l-32-4v-10h81v10l-31 4V0h-17L59-212v198l32 5v9H10v-9l31-5v-208l-31-4v-10h72L203-61v-161" id="U"/><g id="l"><use transform="matrix(0.06172839506172839,0,0,0.06172839506172839,0,0)" xlink:href="#R"/><use transform="matrix(0.06172839506172839,0,0,0.06172839506172839,15.987654320987653,0)" xlink:href="#U"/><use transform="matrix(0.06172839506172839,0,0,0.06172839506172839,31.975308641975307,0)" xlink:href="#S"/><use transform="matrix(0.06172839506172839,0,0,0.06172839506172839,47.96296296296296,0)" xlink:href="#T"/></g><path fill="#333" d="M152 0h-7L59-203v189l32 5v9H10v-9l31-5v-208l-31-4v-10h72l76 180 84-180h68v10l-31 4v208l31 5v9h-96v-9l32-5v-189" id="V"/><path fill="#333" d="M130-224c-62 0-78 43-78 106 0 64 16 108 78 108s78-45 78-108-16-106-78-106zm0 228C53 4 15-39 15-118c-1-80 37-120 115-120s115 42 115 120C245-39 207 4 130 4" id="W"/><path fill="#333" d="M256-236v10l-26 4L135 5h-9L31-222l-27-4v-10h95v10l-31 4 71 174 71-174-31-4v-10h77" id="X"/><g id="m"><use transform="matrix(0.06172839506172839,0,0,0.06172839506172839,0,0)" xlink:href="#V"/><use transform="matrix(0.06172839506172839,0,0,0.06172839506172839,19.753086419753085,0)" xlink:href="#W"/><use transform="matrix(0.06172839506172839,0,0,0.06172839506172839,35.74074074074074,0)" xlink:href="#X"/><use transform="matrix(0.06172839506172839,0,0,0.06172839506172839,48.888888888888886,0)" xlink:href="#T"/></g><path fill="#333" d="M106-76c4 61-43 93-98 74v-43h11c2 18 5 33 28 33 16 0 25-11 25-33v-177l-30-4v-10h91v10l-27 4v146" id="Y"/><path fill="#333" d="M56-15s89 2 122-6l10-45h12l-5 66H17v-17l132-204c-33 1-75-1-103 4l-6 37H28v-56h161v15" id="Z"/><path fill="#333" d="M45-37c13 0 21 8 21 21C67-2 57 4 45 5 33 4 23-2 24-16c0-13 8-21 21-21" id="aa"/><g id="n"><use transform="matrix(0.06172839506172839,0,0,0.06172839506172839,0,0)" xlink:href="#Y"/><use transform="matrix(0.06172839506172839,0,0,0.06172839506172839,8.641975308641975,0)" xlink:href="#Z"/><use transform="matrix(0.06172839506172839,0,0,0.06172839506172839,22.160493827160494,0)" xlink:href="#aa"/><use transform="matrix(0.06172839506172839,0,0,0.06172839506172839,27.71604938271605,0)" xlink:href="#aa"/><use transform="matrix(0.06172839506172839,0,0,0.06172839506172839,33.27160493827161,0)" xlink:href="#aa"/></g><g id="o"><use transform="matrix(0.06172839506172839,0,0,0.06172839506172839,0,0)" xlink:href="#R"/><use transform="matrix(0.06172839506172839,0,0,0.06172839506172839,15.987654320987653,0)" xlink:href="#S"/><use transform="matrix(0.06172839506172839,0,0,0.06172839506172839,31.975308641975307,0)" xlink:href="#S"/></g><path fill="#333" d="M90-239c42 0 69 19 69 61 0 28-14 44-35 53 25 8 42 28 42 61 0 47-28 68-77 68-48 0-75-21-75-68-1-33 18-51 41-61-19-9-34-25-34-53 0-42 26-61 69-61zM89-10c34 0 46-20 46-54 0-32-11-53-46-53-34 0-44 20-44 53-1 34 11 54 44 54zm0-123c28 0 38-16 38-45s-9-47-38-47c-28-1-36 18-36 47s8 45 36 45" id="ab"/><use transform="matrix(0.06172839506172839,0,0,0.06172839506172839,0,0)" xlink:href="#ab" id="p"/><g id="q"><use transform="matrix(0.06172839506172839,0,0,0.06172839506172839,0,0)" xlink:href="#V"/><use transform="matrix(0.06172839506172839,0,0,0.06172839506172839,19.753086419753085,0)" xlink:href="#W"/><use transform="matrix(0.06172839506172839,0,0,0.06172839506172839,35.74074074074074,0)" xlink:href="#X"/></g><path fill="#333" d="M48-126c45-28 121-18 121 53 0 50-25 77-72 77-63 0-80-54-82-120-3-88 52-142 140-116v40h-12c2-42-66-39-79-8-8 20-16 43-16 74zm0 11c2 50 2 105 49 105 33 0 37-26 40-60 5-60-49-61-89-45" id="ac"/><use transform="matrix(0.06172839506172839,0,0,0.06172839506172839,0,0)" xlink:href="#ac" id="r"/><path fill="#333" d="M178-68c0 79-95 82-154 59v-54h12c1 35 22 52 60 52 50 0 69-58 33-82-39-24-105-21-105-85 0-67 86-66 142-53v49h-12l-6-29c-31-27-121-7-89 42 28 43 119 24 119 101" id="ad"/><path fill="#333" d="M134-16c44-1 70-21 70-64v-142l-32-4v-10h80v10l-30 4v141c0 57-33 84-91 85-58 0-93-26-93-82v-144l-30-4v-10h94v10l-30 4c7 82-31 209 62 206" id="ae"/><path fill="#333" d="M75-131c50 2 93 3 93-48 0-46-48-41-93-41v89zm0 115c55 4 111 6 111-51 0-53-58-48-111-48v99zm148-52C223 24 102-3 10 0v-9l31-5v-208l-31-4v-10c77 6 193-24 194 56 0 33-20 48-48 54 36 5 67 20 67 58" id="af"/><g id="s"><use transform="matrix(0.06172839506172839,0,0,0.06172839506172839,0,0)" xlink:href="#ad"/><use transform="matrix(0.06172839506172839,0,0,0.06172839506172839,12.345679012345679,0)" xlink:href="#ae"/><use transform="matrix(0.06172839506172839,0,0,0.06172839506172839,28.333333333333332,0)" xlink:href="#af"/></g><path fill="#333" d="M77-14l30 5v9H13v-9l30-5v-208l-30-4v-10h94v10l-30 4v208" id="ag"/><path fill="#333" d="M18 4H0l83-241h17" id="ah"/><g id="t"><use transform="matrix(0.06172839506172839,0,0,0.06172839506172839,0,0)" xlink:href="#ag"/><use transform="matrix(0.06172839506172839,0,0,0.06172839506172839,7.345679012345679,0)" xlink:href="#ah"/><use transform="matrix(0.06172839506172839,0,0,0.06172839506172839,13.518518518518519,0)" xlink:href="#W"/></g><path fill="#333" d="M84-170c49 0 66 33 63 87H46c-8 60 38 80 95 63v10C128-2 108 4 88 4 34 4 14-29 14-84c-1-54 22-86 70-86zm33 73c12-57-57-82-69-24-1 7-2 15-2 24h71" id="ai"/><path fill="#333" d="M156-12c7 3 23-1 20 12h-75v-8l22-4-38-58-45 58 23 4v8H3v-8l19-3 55-71-48-71c-7-3-23 1-20-12h75v8l-22 4 32 48 37-48-23-4v-8h59v8l-19 3-46 60" id="aj"/><path fill="#333" d="M32-163c41-10 102-14 102 39v112c8 3 24-2 21 12h-45l-4-17C83 13 3 13 13-46c-2-50 45-50 92-51 4-36-5-70-42-56-6 2-12 4-16 6-4 7 0 23-15 20v-36zM42-47c0 41 41 33 63 22v-59c-34 1-63-1-63 37" id="ak"/><path fill="#333" d="M126-118c4-37-42-32-68-25v131l24 4v8H8C5-13 21-9 28-12v-141c-7-3-23 1-20-12h48l1 13c22-15 77-30 92 2 32-22 104-36 104 29v109c8 3 24-2 21 12h-75v-8l25-4v-106c3-39-45-31-72-24 7 37 1 88 3 130l25 4v8h-78v-8l24-4v-106" id="al"/><path fill="#333" d="M166-85c3 67-44 102-111 85l1 64 29 4v9H6v-9l21-4v-217c-7-3-22 1-19-12h46l1 9c11-8 26-14 45-14 47 2 64 36 66 85zM56-13c53 14 83-14 78-72 7-53-33-79-78-60v132" id="am"/><path fill="#333" d="M65-12l28 4v8H7v-8l28-4v-226l-28-4v-8h58v238" id="an"/><g id="u"><use transform="matrix(0.06172839506172839,0,0,0.06172839506172839,0,0)" xlink:href="#ai"/><use transform="matrix(0.06172839506172839,0,0,0.06172839506172839,9.814814814814815,0)" xlink:href="#aj"/><use transform="matrix(0.06172839506172839,0,0,0.06172839506172839,20.925925925925924,0)" xlink:href="#ak"/><use transform="matrix(0.06172839506172839,0,0,0.06172839506172839,30.74074074074074,0)" xlink:href="#al"/><use transform="matrix(0.06172839506172839,0,0,0.06172839506172839,48.02469135802469,0)" xlink:href="#am"/><use transform="matrix(0.06172839506172839,0,0,0.06172839506172839,59.1358024691358,0)" xlink:href="#an"/><use transform="matrix(0.06172839506172839,0,0,0.06172839506172839,65.30864197530863,0)" xlink:href="#ai"/></g><path fill="#333" d="M124-13C89 8 26 15 26-45v-108c-8-3-24 2-21-12h50v118c-3 37 42 32 69 25v-131l-25-4v-8h54v153c8 3 24-2 21 12h-48" id="ao"/><g id="v"><use transform="matrix(0.055555555555555546,0,0,0.055555555555555546,0,0)" xlink:href="#ag"/><use transform="matrix(0.055555555555555546,0,0,0.055555555555555546,6.61111111111111,0)" xlink:href="#M"/><use transform="matrix(0.055555555555555546,0,0,0.055555555555555546,16.611111111111107,0)" xlink:href="#am"/><use transform="matrix(0.055555555555555546,0,0,0.055555555555555546,26.611111111111107,0)" xlink:href="#ao"/><use transform="matrix(0.055555555555555546,0,0,0.055555555555555546,36.61111111111111,0)" xlink:href="#O"/></g><path fill="#333" d="M164-154L98 4H85L17-153c-7-3-20 0-17-12h77v8l-26 4L99-38l46-115-26-4v-8h61v8" id="ap"/><g id="w"><use transform="matrix(0.055555555555555546,0,0,0.055555555555555546,0,0)" xlink:href="#ap"/><use transform="matrix(0.055555555555555546,0,0,0.055555555555555546,9.999999999999998,0)" xlink:href="#ak"/><use transform="matrix(0.055555555555555546,0,0,0.055555555555555546,18.83333333333333,0)" xlink:href="#an"/><use transform="matrix(0.055555555555555546,0,0,0.055555555555555546,24.388888888888882,0)" xlink:href="#ao"/><use transform="matrix(0.055555555555555546,0,0,0.055555555555555546,34.38888888888888,0)" xlink:href="#ai"/></g><path fill="#333" d="M77 4H58l167-243h19zm-7-243c39 0 57 24 57 64 0 41-16 65-58 65-41 0-57-24-57-65s17-64 58-64zm-1 117c26 0 30-24 30-53 0-28-3-51-30-51s-29 24-29 51c0 28 2 53 29 53zm162-3c39 0 57 24 57 64 0 42-17 66-58 66-40 0-57-25-57-66s17-64 58-64zM230-8c26 0 30-24 30-53 0-28-3-51-30-51s-29 24-29 51c0 28 3 53 29 53" id="aq"/><path fill="#333" d="M57-145c16-10 35-24 60-25v45c-19 1-8-30-40-17l-20 6v124l29 4v8H7v-8l21-4v-141c-8-3-24 2-21-12h48" id="ar"/><g id="x"><use transform="matrix(0.055555555555555546,0,0,0.055555555555555546,0,0)" xlink:href="#aq"/><use transform="matrix(0.055555555555555546,0,0,0.055555555555555546,16.611111111111107,0)" xlink:href="#ar"/><use transform="matrix(0.055555555555555546,0,0,0.055555555555555546,23.222222222222218,0)" xlink:href="#ak"/><use transform="matrix(0.055555555555555546,0,0,0.055555555555555546,32.05555555555555,0)" xlink:href="#aj"/></g><path fill="#333" d="M185-92v17H18v-17h167zm0-73v18H18v-18h167" id="as"/><use transform="matrix(0.055555555555555546,0,0,0.055555555555555546,0,0)" xlink:href="#as" id="y"/><use transform="matrix(0.055555555555555546,0,0,0.055555555555555546,0,0)" xlink:href="#H" id="z"/><g id="A"><use transform="matrix(0.055555555555555546,0,0,0.055555555555555546,0,0)" xlink:href="#W"/><use transform="matrix(0.055555555555555546,0,0,0.055555555555555546,14.388888888888886,0)" xlink:href="#ao"/><use transform="matrix(0.055555555555555546,0,0,0.055555555555555546,24.388888888888886,0)" xlink:href="#O"/><use transform="matrix(0.055555555555555546,0,0,0.055555555555555546,29.94444444444444,0)" xlink:href="#am"/><use transform="matrix(0.055555555555555546,0,0,0.055555555555555546,39.944444444444436,0)" xlink:href="#ao"/><use transform="matrix(0.055555555555555546,0,0,0.055555555555555546,49.944444444444436,0)" xlink:href="#O"/></g><use transform="matrix(0.055555555555555546,0,0,0.055555555555555546,0,0)" xlink:href="#J" id="B"/><use transform="matrix(0.055555555555555546,0,0,0.055555555555555546,0,0)" xlink:href="#K" id="C"/><g id="D"><use transform="matrix(0.055555555555555546,0,0,0.055555555555555546,0,0)" xlink:href="#P"/><use transform="matrix(0.055555555555555546,0,0,0.055555555555555546,9.999999999999998,0)" xlink:href="#J"/></g><g id="E"><use transform="matrix(0.06172839506172839,0,0,0.06172839506172839,0,0)" xlink:href="#Z"/><use transform="matrix(0.06172839506172839,0,0,0.06172839506172839,13.518518518518517,0)" xlink:href="#G"/></g><path fill="#333" d="M90-170c52 0 76 32 76 87 0 54-24 87-77 87-51 0-75-34-75-87 0-54 24-87 76-87zM89-10c39 0 46-35 46-73 0-39-7-73-46-73-39 1-44 34-44 73s6 72 44 73" id="at"/><g id="F"><use transform="matrix(0.06172839506172839,0,0,0.06172839506172839,0,0)" xlink:href="#N"/><use transform="matrix(0.06172839506172839,0,0,0.06172839506172839,8.641975308641975,0)" xlink:href="#at"/><use transform="matrix(0.06172839506172839,0,0,0.06172839506172839,19.753086419753085,0)" xlink:href="#an"/><use transform="matrix(0.06172839506172839,0,0,0.06172839506172839,25.925925925925924,0)" xlink:href="#ap"/><use transform="matrix(0.06172839506172839,0,0,0.06172839506172839,37.03703703703704,0)" xlink:href="#ai"/><use transform="matrix(0.06172839506172839,0,0,0.06172839506172839,46.851851851851855,0)" xlink:href="#ar"/></g></defs></g></svg>